<svg width="264" height="221" viewBox="0 0 264 221" fill="none" xmlns="http://www.w3.org/2000/svg">
<path d="M40 0.233002C57.829 0.233002 78.7368 -2.75893 91.8797 12.6998C105.023 28.1586 153.789 109.94 153.789 109.94L199.098 182.746H224V220.645C199.823 220.645 177.865 225.632 162.09 198.205C151.334 179.503 98.4793 94.257 65.9399 41.9126C61.7831 35.2259 63.1729 37.6333 63.1729 37.6333C45.188 37.6333 63.1729 37.6333 40 37.6333V0.233002Z" fill="white"/>
<path d="M264 56C264 44.9543 255.046 36 244 36H224V183H244C255.046 183 264 174.046 264 163V56Z" fill="white"/>
<path d="M187 16C187 27.0457 195.954 36 207 36H224V0H187V16Z" fill="white"/>
<path d="M40 38H20C8.95431 38 0 46.9543 0 58V164C0 175.046 8.95431 184 20 184H40V38Z" fill="white"/>
<path d="M40 221H77V204C77 192.954 68.0457 184 57 184H40V221Z" fill="white"/>
</svg>
